<?xml version="1.0" encoding="utf-8"?>
<!-- Generator: Adobe Illustrator 21.1.0, SVG Export Plug-In . SVG Version: 6.00 Build 0)  -->
<svg version="1.1" id="Layer_1" xmlns="http://www.w3.org/2000/svg" xmlns:xlink="http://www.w3.org/1999/xlink" x="0px" y="0px"
	 viewBox="0 0 30.7 36" style="enable-background:new 0 0 30.7 36;" xml:space="preserve">
<style type="text/css">
	.st0{fill:#D9514B;}
</style>
<g>
	<g>
		<path class="st0" d="M12.7,23.7c-0.5,0-1-0.4-1.1-0.9c-0.2-0.6-0.2-1.2-0.2-1.8v-5.6c0-2.2,1.8-4,4-4c1.5,0,3,0.9,3.6,2.3
			c0.3,0.6,0,1.3-0.6,1.5c-0.6,0.2-1.2,0-1.5-0.5c-0.4-0.8-1.4-1.2-2.2-0.8c-0.6,0.3-1,0.9-1,1.5V21c0,0.4,0.1,0.8,0.2,1.2
			c0.2,0.6-0.2,1.3-0.8,1.4C12.9,23.7,12.8,23.7,12.7,23.7"/>
		<path class="st0" d="M18.2,27.8c-1.1,0-2.2-0.3-3.1-0.8c-0.6-0.3-0.8-1-0.5-1.6c0.3-0.6,1-0.8,1.6-0.5c0,0,0,0,0,0
			c2.2,1.1,4.9,0.3,6.1-2c0.3-0.6,0.5-1.3,0.5-2v-5.6c0-4-3.3-7.3-7.3-7.3c-0.6,0-1.2-0.5-1.2-1.2c0-0.6,0.5-1.2,1.2-1.2
			c5.3,0,9.7,4.3,9.7,9.7V21C25,24.8,22,27.8,18.2,27.8"/>
		<path class="st0" d="M18.2,33.5c-6.9,0-12.5-5.6-12.5-12.5v-5.6c0-3.4,1.8-6.6,4.8-8.4c0.6-0.3,1.3-0.1,1.6,0.4
			C12.4,8,12.2,8.7,11.7,9l0,0C9.4,10.3,8,12.8,8,15.4V21c0,5.6,4.6,10.2,10.2,10.2c1.7,0,3.2-0.4,4.7-1.1c0.6-0.3,1.3-0.1,1.6,0.5
			s0.1,1.3-0.5,1.6C22.2,33,20.2,33.5,18.2,33.5"/>
		<path class="st0" d="M27,29.4c-0.6,0-1.2-0.5-1.2-1.2c0-0.3,0.1-0.5,0.3-0.7c1.5-1.8,2.3-4.1,2.3-6.5v-5.6
			c0-5.4-3.4-10.3-8.4-12.2c0,0-1.3-0.4-2.3-0.6c-1.1-0.2-2.3-0.2-2.3-0.2c-7.2,0-13,5.8-13,13V21c0,0.6-0.5,1.2-1.2,1.2
			S0,21.6,0,21v-5.6C0,6.9,6.9,0,15.4,0c0.1,0,1.4,0,2.7,0.2c1.2,0.2,2.6,0.7,2.7,0.7c6,2.2,10,8,10,14.4V21c0,2.9-1,5.7-2.9,8
			C27.6,29.2,27.3,29.4,27,29.4 M8.3,36c-0.2,0-0.5-0.1-0.7-0.2c-3.3-2.4-5.7-5.7-6.8-9.6c-0.2-0.6,0.2-1.3,0.8-1.5
			c0.6-0.2,1.3,0.2,1.5,0.8l0,0c1,3.4,3.1,6.3,6,8.4c0.5,0.4,0.6,1.1,0.3,1.6C9,35.8,8.6,36,8.3,36"/>
	</g>
</g>
</svg>
